<svg width="631" height="203" viewBox="0 0 631 203" fill="none" xmlns="http://www.w3.org/2000/svg">
<path fill-rule="evenodd" clip-rule="evenodd" d="M23.3695 24.4541C29.7982 27.7605 32.1025 35.7064 28.3879 41.7651C21.5492 52.9236 4.0132 48.0407 4.00001 34.9747C3.98986 26.0497 14.9256 20.1102 23.3695 24.4541ZM77.2904 58.8198L77.5572 92.7292L91.6688 75.3798C99.4298 65.8372 106.302 57.8307 106.939 57.5874C107.577 57.3442 114.21 57.2715 121.68 57.4279L135.262 57.7106L119.093 76.3821C110.199 86.6514 102.346 95.7893 101.64 96.6886C100.536 98.0955 102.839 101.449 118.128 120.685C127.902 132.984 135.899 143.261 135.899 143.525C135.899 143.788 129.594 144.003 121.887 144.003H107.876L96.459 129.814L85.0422 115.624L81.0882 119.973L77.1331 124.322L77.0915 134.163L77.0499 144.003H64.8743H52.6986V84.4562V24.9093H64.8611H77.0225L77.2904 58.8198ZM201.93 57.8195C204.397 58.7804 208.129 60.8898 210.221 62.5076L214.026 65.4496V61.3278V57.2059H225.694H237.363V100.605V144.003H225.694H214.026V139.915V135.826L210.673 138.371C199.197 147.077 181.811 148.081 166.704 140.908C141.882 129.125 135.988 89.3502 155.977 68.5198C165.153 58.957 175.646 54.8917 189.247 55.6294C193.754 55.8737 199.461 56.8597 201.93 57.8195ZM307.88 57.3724C312.42 58.3242 326.723 65.0429 329.101 67.341C329.983 68.1928 319.126 83.4681 317.665 83.4298C317.306 83.4207 313.131 81.8382 308.388 79.9145C298.53 75.9158 291.655 75.3728 286.065 78.1503C283.508 79.421 282.425 80.6866 282.195 82.6749C281.765 86.3799 284.974 87.7596 301.614 91.0266C316.082 93.8677 322.754 96.7087 327.448 102.026C335.814 111.505 334.079 129.012 323.888 137.935C317.294 143.709 310.675 145.52 296.212 145.506C283.137 145.495 273.619 143.224 264.116 137.852C255.6 133.037 255.6 133.03 262.358 123.972L268.295 116.016L273.894 118.936C288.167 126.377 304.624 126.776 308.394 119.771C309.685 117.369 308.29 114.145 305.598 113.312C304.621 113.01 297.886 111.603 290.631 110.185C283.377 108.767 275.056 106.457 272.141 105.053C259.937 99.1744 255.078 87.4002 259.184 73.6499C263.361 59.6574 284.725 52.5158 307.88 57.3724ZM407.188 57.3765C419.354 60.4215 432.341 70.711 437.546 81.4284C445.851 98.5275 442.347 118.525 428.661 132.138C409.746 150.954 378.318 150.562 360.188 131.284C353.177 123.829 349.286 116.178 348.073 107.464C345.336 87.7838 355.436 69.2667 373.583 60.694C384.495 55.5396 395.507 54.4527 407.188 57.3765ZM29.3619 100.605V144.003H17.1863H5.01059V100.605V57.2059H17.1863H29.3619V100.605ZM183.581 77.3247C175.48 79.7762 170.449 85.2132 168.294 93.8485C163.898 111.459 176.576 126.35 194.408 124.519C207.27 123.199 214.533 114.577 214.533 100.632C214.533 94.2138 214.096 92.2518 211.718 87.9887C208.702 82.581 204.248 78.9436 198.71 77.3641C194.732 76.2286 187.266 76.2094 183.581 77.3247ZM388.907 77.2894C381.816 79.095 375.625 84.4906 372.725 91.392C370.97 95.5713 370.856 106.569 372.529 110.398C377.493 121.754 388.805 127.488 400.362 124.506C411.161 121.72 417.969 112.644 417.969 101.034C417.969 91.1699 414.319 84.535 406.33 79.8782C401.573 77.1057 394.032 75.9854 388.907 77.2894Z" fill="white"/>
<path d="M551.756 14.9131L569.927 29.8971L570.437 20.1631L570.947 10.4302L580.989 10.1431C587.519 9.9561 591.531 10.2611 592.457 11.0151C593.576 11.9261 593.882 15.8531 593.882 29.2841V46.3921L603.2 55.5721C614.818 67.0171 614.773 67.9301 602.578 67.9301H593.882V92.3981V116.867L605.859 117.148H630.5L630.5 189.218V202.218L529.919 202.756C442.512 203.01 442 202.999 442 201.006C442 199.014 442.6 199 528.135 199L626.933 198.718V189.218L626.932 120.648L602.146 120.93C592.032 120.93 589.92 120.668 589.404 119.348C588.597 117.284 588.597 67.5761 589.404 65.5121C589.893 64.2621 591.644 63.9301 597.739 63.9301H605.457L597.121 55.5521L588.785 47.1741V31.0521V14.9301H581.685H574.584L574.294 25.5991C574.105 32.5871 573.596 36.4001 572.82 36.6531C572.169 36.8641 568.499 34.4141 564.666 31.2061C560.832 27.9991 552.085 20.7351 545.228 15.0641L532.761 4.75315L496.978 34.0921L461.195 63.4301L468.134 63.7311C472.097 63.9031 475.406 64.5461 475.849 65.2311C476.276 65.8901 476.633 78.2431 476.642 92.6801L476.657 118.93H474.109H471.561V93.4691V68.0081L462.641 67.7191C455.179 67.4771 453.722 67.1621 453.722 65.7921C453.722 64.1051 530.218 0.128161 532.388 0.000160586C533.045 -0.0378394 541.761 6.67309 551.756 14.9131Z" fill="#FDB927"/>
<path fill-rule="evenodd" clip-rule="evenodd" d="M554.943 56.1301C556.673 57.8271 556.673 98.0331 554.943 99.7301C554.068 100.588 547.56 100.93 532.117 100.93C513.358 100.93 510.432 100.722 509.895 99.3481C508.665 96.2031 509.207 57.3981 510.5 56.1301C512.229 54.4331 553.213 54.4331 554.943 56.1301ZM514.373 75.9301V67.9301V59.9301H522.528H530.683V67.9301V75.9301H522.528H514.373ZM534.76 75.9301V67.9301V59.9301H542.915H551.07V67.9301V75.9301H542.915H534.76ZM514.373 96.9301V88.4301V79.9301H522.528H530.683V88.4301V96.9301H522.528H514.373ZM534.76 96.9301V88.4301V79.9301H542.915H551.07V88.4301V96.9301H542.915H534.76Z" fill="#FDB927"/>
<path d="M1.88352 161.683V158.636H23.1562V161.683H14.2372V187H10.8026V161.683H1.88352ZM25.805 187V165.727H28.9626V168.94H29.1842C29.572 167.888 30.2737 167.034 31.2893 166.378C32.305 165.723 33.4498 165.395 34.724 165.395C34.964 165.395 35.2641 165.4 35.6242 165.409C35.9843 165.418 36.2567 165.432 36.4413 165.45V168.774C36.3305 168.746 36.0766 168.705 35.6796 168.65C35.2918 168.585 34.8809 168.553 34.447 168.553C33.4129 168.553 32.4896 168.77 31.6771 169.203C30.8738 169.628 30.2368 170.219 29.7659 170.976C29.3042 171.724 29.0734 172.578 29.0734 173.538V187H25.805ZM48.3103 187.443C46.3898 187.443 44.7048 186.986 43.2552 186.072C41.8149 185.158 40.6885 183.879 39.876 182.236C39.0727 180.592 38.6711 178.672 38.6711 176.474C38.6711 174.259 39.0727 172.324 39.876 170.672C40.6885 169.019 41.8149 167.735 43.2552 166.821C44.7048 165.907 46.3898 165.45 48.3103 165.45C50.2307 165.45 51.9111 165.907 53.3515 166.821C54.801 167.735 55.9275 169.019 56.7307 170.672C57.5432 172.324 57.9495 174.259 57.9495 176.474C57.9495 178.672 57.5432 180.592 56.7307 182.236C55.9275 183.879 54.801 185.158 53.3515 186.072C51.9111 186.986 50.2307 187.443 48.3103 187.443ZM48.3103 184.507C49.7691 184.507 50.9694 184.133 51.9111 183.385C52.8529 182.637 53.55 181.654 54.0024 180.435C54.4548 179.217 54.681 177.896 54.681 176.474C54.681 175.053 54.4548 173.728 54.0024 172.5C53.55 171.272 52.8529 170.279 51.9111 169.522C50.9694 168.765 49.7691 168.386 48.3103 168.386C46.8515 168.386 45.6512 168.765 44.7094 169.522C43.7677 170.279 43.0706 171.272 42.6182 172.5C42.1657 173.728 41.9395 175.053 41.9395 176.474C41.9395 177.896 42.1657 179.217 42.6182 180.435C43.0706 181.654 43.7677 182.637 44.7094 183.385C45.6512 184.133 46.8515 184.507 48.3103 184.507ZM76.345 178.303V165.727H79.6135V187H76.345V183.399H76.1234C75.6248 184.479 74.8493 185.398 73.7967 186.155C72.7441 186.903 71.4146 187.277 69.8081 187.277C68.4785 187.277 67.2967 186.986 66.2626 186.404C65.2285 185.814 64.416 184.927 63.8251 183.745C63.2342 182.554 62.9387 181.054 62.9387 179.244V165.727H66.2072V179.023C66.2072 180.574 66.6412 181.811 67.5091 182.734C68.3862 183.658 69.5034 184.119 70.8606 184.119C71.6731 184.119 72.4995 183.912 73.3397 183.496C74.1891 183.081 74.9 182.444 75.4725 181.585C76.0542 180.726 76.345 179.632 76.345 178.303ZM102.995 165.727L95.1283 187H91.8044L83.9379 165.727H87.4834L93.3556 182.679H93.5771L99.4493 165.727H102.995ZM115.466 187.443C113.416 187.443 111.648 186.991 110.162 186.086C108.685 185.172 107.544 183.898 106.741 182.263C105.947 180.62 105.55 178.709 105.55 176.53C105.55 174.351 105.947 172.43 106.741 170.768C107.544 169.097 108.661 167.795 110.093 166.863C111.533 165.921 113.213 165.45 115.134 165.45C116.242 165.45 117.336 165.635 118.416 166.004C119.496 166.374 120.48 166.974 121.366 167.805C122.252 168.626 122.959 169.716 123.485 171.073C124.011 172.43 124.274 174.102 124.274 176.087V177.472H107.877V174.646H120.951C120.951 173.446 120.71 172.375 120.23 171.433C119.759 170.491 119.085 169.748 118.208 169.203C117.34 168.659 116.316 168.386 115.134 168.386C113.832 168.386 112.706 168.71 111.755 169.356C110.813 169.993 110.088 170.824 109.58 171.849C109.072 172.874 108.818 173.972 108.818 175.145V177.028C108.818 178.635 109.095 179.997 109.649 181.114C110.213 182.222 110.993 183.067 111.99 183.648C112.987 184.221 114.146 184.507 115.466 184.507C116.325 184.507 117.1 184.387 117.793 184.147C118.495 183.898 119.099 183.528 119.607 183.039C120.115 182.54 120.507 181.922 120.784 181.183L123.942 182.07C123.61 183.141 123.051 184.082 122.266 184.895C121.481 185.698 120.512 186.326 119.358 186.778C118.204 187.222 116.907 187.443 115.466 187.443ZM128.637 187V184.507L140.714 168.996V168.774H129.025V165.727H144.924V168.331L133.18 183.732V183.953H145.312V187H128.637ZM162.533 173.317V176.364H150.124V173.317H162.533ZM168.284 187V165.727H171.442V168.94H171.664C172.051 167.888 172.753 167.034 173.769 166.378C174.784 165.723 175.929 165.395 177.203 165.395C177.444 165.395 177.744 165.4 178.104 165.409C178.464 165.418 178.736 165.432 178.921 165.45V168.774C178.81 168.746 178.556 168.705 178.159 168.65C177.771 168.585 177.36 168.553 176.926 168.553C175.892 168.553 174.969 168.77 174.157 169.203C173.353 169.628 172.716 170.219 172.245 170.976C171.784 171.724 171.553 172.578 171.553 173.538V187H168.284ZM191.067 187.443C189.017 187.443 187.249 186.991 185.762 186.086C184.285 185.172 183.145 183.898 182.342 182.263C181.548 180.62 181.151 178.709 181.151 176.53C181.151 174.351 181.548 172.43 182.342 170.768C183.145 169.097 184.262 167.795 185.693 166.863C187.134 165.921 188.814 165.45 190.734 165.45C191.842 165.45 192.936 165.635 194.017 166.004C195.097 166.374 196.08 166.974 196.967 167.805C197.853 168.626 198.559 169.716 199.086 171.073C199.612 172.43 199.875 174.102 199.875 176.087V177.472H183.477V174.646H196.551C196.551 173.446 196.311 172.375 195.831 171.433C195.36 170.491 194.686 169.748 193.809 169.203C192.941 168.659 191.916 168.386 190.734 168.386C189.433 168.386 188.306 168.71 187.355 169.356C186.413 169.993 185.689 170.824 185.181 171.849C184.673 172.874 184.419 173.972 184.419 175.145V177.028C184.419 178.635 184.696 179.997 185.25 181.114C185.813 182.222 186.593 183.067 187.591 183.648C188.588 184.221 189.746 184.507 191.067 184.507C191.925 184.507 192.701 184.387 193.393 184.147C194.095 183.898 194.7 183.528 195.208 183.039C195.716 182.54 196.108 181.922 196.385 181.183L199.543 182.07C199.21 183.141 198.652 184.082 197.867 184.895C197.082 185.698 196.113 186.326 194.958 186.778C193.804 187.222 192.507 187.443 191.067 187.443ZM189.072 162.847L192.452 156.42H196.274L191.953 162.847H189.072ZM219.915 170.491L216.979 171.322C216.794 170.833 216.522 170.358 216.162 169.896C215.811 169.425 215.331 169.037 214.722 168.733C214.112 168.428 213.332 168.276 212.381 168.276C211.079 168.276 209.994 168.576 209.126 169.176C208.268 169.767 207.838 170.519 207.838 171.433C207.838 172.246 208.134 172.887 208.725 173.358C209.316 173.829 210.239 174.222 211.495 174.536L214.652 175.311C216.554 175.773 217.972 176.479 218.904 177.43C219.837 178.372 220.303 179.586 220.303 181.072C220.303 182.291 219.952 183.381 219.25 184.341C218.558 185.301 217.588 186.058 216.342 186.612C215.096 187.166 213.646 187.443 211.993 187.443C209.824 187.443 208.028 186.972 206.606 186.031C205.184 185.089 204.284 183.713 203.905 181.903L207.007 181.128C207.303 182.273 207.862 183.131 208.683 183.704C209.514 184.276 210.599 184.562 211.938 184.562C213.461 184.562 214.671 184.239 215.566 183.593C216.471 182.937 216.924 182.153 216.924 181.239C216.924 180.5 216.665 179.881 216.148 179.383C215.631 178.875 214.837 178.496 213.766 178.247L210.221 177.416C208.272 176.955 206.841 176.239 205.927 175.27C205.022 174.291 204.57 173.067 204.57 171.599C204.57 170.399 204.907 169.337 205.581 168.414C206.264 167.491 207.192 166.766 208.365 166.24C209.547 165.713 210.885 165.45 212.381 165.45C214.486 165.45 216.139 165.912 217.339 166.835C218.549 167.759 219.407 168.977 219.915 170.491ZM234.142 187.443C232.092 187.443 230.324 186.991 228.838 186.086C227.36 185.172 226.22 183.898 225.417 182.263C224.623 180.62 224.226 178.709 224.226 176.53C224.226 174.351 224.623 172.43 225.417 170.768C226.22 169.097 227.337 167.795 228.768 166.863C230.209 165.921 231.889 165.45 233.81 165.45C234.918 165.45 236.012 165.635 237.092 166.004C238.172 166.374 239.155 166.974 240.042 167.805C240.928 168.626 241.635 169.716 242.161 171.073C242.687 172.43 242.95 174.102 242.95 176.087V177.472H226.552V174.646H239.626C239.626 173.446 239.386 172.375 238.906 171.433C238.435 170.491 237.761 169.748 236.884 169.203C236.016 168.659 234.991 168.386 233.81 168.386C232.508 168.386 231.381 168.71 230.43 169.356C229.489 169.993 228.764 170.824 228.256 171.849C227.748 172.874 227.494 173.972 227.494 175.145V177.028C227.494 178.635 227.771 179.997 228.325 181.114C228.888 182.222 229.669 183.067 230.666 183.648C231.663 184.221 232.822 184.507 234.142 184.507C235.001 184.507 235.776 184.387 236.469 184.147C237.17 183.898 237.775 183.528 238.283 183.039C238.791 182.54 239.183 181.922 239.46 181.183L242.618 182.07C242.285 183.141 241.727 184.082 240.942 184.895C240.157 185.698 239.188 186.326 238.034 186.778C236.88 187.222 235.582 187.443 234.142 187.443ZM247.922 187V165.727H251.08V168.94H251.301C251.689 167.888 252.391 167.034 253.407 166.378C254.422 165.723 255.567 165.395 256.841 165.395C257.081 165.395 257.381 165.4 257.741 165.409C258.101 165.418 258.374 165.432 258.559 165.45V168.774C258.448 168.746 258.194 168.705 257.797 168.65C257.409 168.585 256.998 168.553 256.564 168.553C255.53 168.553 254.607 168.77 253.794 169.203C252.991 169.628 252.354 170.219 251.883 170.976C251.421 171.724 251.191 172.578 251.191 173.538V187H247.922ZM280.475 165.727L272.609 187H269.285L261.418 165.727H264.964L270.836 182.679H271.058L276.93 165.727H280.475ZM292.947 187.443C290.897 187.443 289.129 186.991 287.642 186.086C286.165 185.172 285.025 183.898 284.222 182.263C283.427 180.62 283.03 178.709 283.03 176.53C283.03 174.351 283.427 172.43 284.222 170.768C285.025 169.097 286.142 167.795 287.573 166.863C289.013 165.921 290.694 165.45 292.614 165.45C293.722 165.45 294.816 165.635 295.897 166.004C296.977 166.374 297.96 166.974 298.847 167.805C299.733 168.626 300.439 169.716 300.965 171.073C301.492 172.43 301.755 174.102 301.755 176.087V177.472H285.357V174.646H298.431C298.431 173.446 298.191 172.375 297.711 171.433C297.24 170.491 296.566 169.748 295.689 169.203C294.821 168.659 293.796 168.386 292.614 168.386C291.312 168.386 290.186 168.71 289.235 169.356C288.293 169.993 287.568 170.824 287.061 171.849C286.553 172.874 286.299 173.972 286.299 175.145V177.028C286.299 178.635 286.576 179.997 287.13 181.114C287.693 182.222 288.473 183.067 289.47 183.648C290.468 184.221 291.626 184.507 292.947 184.507C293.805 184.507 294.581 184.387 295.273 184.147C295.975 183.898 296.58 183.528 297.088 183.039C297.595 182.54 297.988 181.922 298.265 181.183L301.422 182.07C301.09 183.141 300.532 184.082 299.747 184.895C298.962 185.698 297.992 186.326 296.838 186.778C295.684 187.222 294.387 187.443 292.947 187.443ZM306.117 187V184.507L318.194 168.996V168.774H306.505V165.727H322.404V168.331L310.66 183.732V183.953H322.792V187H306.117ZM340.014 173.317V176.364H327.605V173.317H340.014ZM353.798 187.443C352.025 187.443 350.46 186.995 349.103 186.1C347.745 185.195 346.684 183.921 345.917 182.277C345.151 180.625 344.768 178.672 344.768 176.419C344.768 174.185 345.151 172.246 345.917 170.602C346.684 168.959 347.75 167.689 349.116 166.794C350.483 165.898 352.062 165.45 353.853 165.45C355.238 165.45 356.332 165.681 357.135 166.143C357.948 166.595 358.566 167.112 358.991 167.694C359.425 168.266 359.762 168.737 360.002 169.107H360.279V158.636H363.548V187H360.39V183.732H360.002C359.762 184.119 359.42 184.609 358.977 185.2C358.534 185.781 357.902 186.303 357.08 186.765C356.258 187.217 355.164 187.443 353.798 187.443ZM354.241 184.507C355.552 184.507 356.66 184.165 357.565 183.482C358.469 182.79 359.157 181.834 359.628 180.615C360.099 179.387 360.335 177.97 360.335 176.364C360.335 174.776 360.104 173.386 359.642 172.195C359.18 170.995 358.497 170.062 357.592 169.397C356.688 168.723 355.57 168.386 354.241 168.386C352.856 168.386 351.702 168.742 350.778 169.453C349.864 170.154 349.176 171.11 348.715 172.32C348.262 173.52 348.036 174.868 348.036 176.364C348.036 177.878 348.267 179.254 348.729 180.491C349.2 181.719 349.892 182.697 350.806 183.427C351.729 184.147 352.874 184.507 354.241 184.507ZM378.907 187.443C376.857 187.443 375.089 186.991 373.602 186.086C372.125 185.172 370.985 183.898 370.181 182.263C369.387 180.62 368.99 178.709 368.99 176.53C368.99 174.351 369.387 172.43 370.181 170.768C370.985 169.097 372.102 167.795 373.533 166.863C374.973 165.921 376.654 165.45 378.574 165.45C379.682 165.45 380.776 165.635 381.857 166.004C382.937 166.374 383.92 166.974 384.806 167.805C385.693 168.626 386.399 169.716 386.925 171.073C387.452 172.43 387.715 174.102 387.715 176.087V177.472H371.317V174.646H384.391C384.391 173.446 384.151 172.375 383.671 171.433C383.2 170.491 382.526 169.748 381.649 169.203C380.781 168.659 379.756 168.386 378.574 168.386C377.272 168.386 376.146 168.71 375.195 169.356C374.253 169.993 373.528 170.824 373.021 171.849C372.513 172.874 372.259 173.972 372.259 175.145V177.028C372.259 178.635 372.536 179.997 373.09 181.114C373.653 182.222 374.433 183.067 375.43 183.648C376.428 184.221 377.586 184.507 378.907 184.507C379.765 184.507 380.541 184.387 381.233 184.147C381.935 183.898 382.54 183.528 383.048 183.039C383.555 182.54 383.948 181.922 384.225 181.183L387.382 182.07C387.05 183.141 386.491 184.082 385.707 184.895C384.922 185.698 383.952 186.326 382.798 186.778C381.644 187.222 380.347 187.443 378.907 187.443ZM376.912 162.847L380.292 156.42H384.114L379.793 162.847H376.912ZM401.938 165.727V168.497H390.914V165.727H401.938ZM394.127 160.631H397.396V180.906C397.396 181.83 397.529 182.522 397.797 182.984C398.074 183.436 398.425 183.741 398.85 183.898C399.284 184.045 399.741 184.119 400.221 184.119C400.581 184.119 400.876 184.101 401.107 184.064C401.338 184.018 401.523 183.981 401.661 183.953L402.326 186.889C402.104 186.972 401.795 187.055 401.398 187.138C401.001 187.231 400.498 187.277 399.888 187.277C398.965 187.277 398.06 187.078 397.174 186.681C396.297 186.284 395.567 185.68 394.986 184.867C394.413 184.055 394.127 183.03 394.127 181.793V160.631ZM415.545 187.443C413.496 187.443 411.727 186.991 410.241 186.086C408.764 185.172 407.623 183.898 406.82 182.263C406.026 180.62 405.629 178.709 405.629 176.53C405.629 174.351 406.026 172.43 406.82 170.768C407.623 169.097 408.741 167.795 410.172 166.863C411.612 165.921 413.292 165.45 415.213 165.45C416.321 165.45 417.415 165.635 418.495 166.004C419.575 166.374 420.559 166.974 421.445 167.805C422.331 168.626 423.038 169.716 423.564 171.073C424.09 172.43 424.354 174.102 424.354 176.087V177.472H407.956V174.646H421.03C421.03 173.446 420.79 172.375 420.309 171.433C419.839 170.491 419.165 169.748 418.287 169.203C417.42 168.659 416.395 168.386 415.213 168.386C413.911 168.386 412.785 168.71 411.834 169.356C410.892 169.993 410.167 170.824 409.659 171.849C409.151 172.874 408.898 173.972 408.898 175.145V177.028C408.898 178.635 409.175 179.997 409.729 181.114C410.292 182.222 411.072 183.067 412.069 183.648C413.066 184.221 414.225 184.507 415.545 184.507C416.404 184.507 417.18 184.387 417.872 184.147C418.574 183.898 419.178 183.528 419.686 183.039C420.194 182.54 420.586 181.922 420.863 181.183L424.021 182.07C423.689 183.141 423.13 184.082 422.345 184.895C421.561 185.698 420.591 186.326 419.437 186.778C418.283 187.222 416.986 187.443 415.545 187.443ZM432.594 174.203V187H429.325V165.727H432.483V169.051H432.76C433.259 167.971 434.016 167.103 435.031 166.447C436.047 165.783 437.358 165.45 438.965 165.45C440.405 165.45 441.665 165.746 442.746 166.337C443.826 166.918 444.666 167.805 445.266 168.996C445.866 170.178 446.166 171.673 446.166 173.483V187H442.898V173.705C442.898 172.033 442.464 170.732 441.596 169.799C440.728 168.857 439.537 168.386 438.023 168.386C436.98 168.386 436.047 168.613 435.225 169.065C434.413 169.517 433.771 170.178 433.3 171.045C432.829 171.913 432.594 172.966 432.594 174.203ZM460.172 187.443C458.399 187.443 456.834 186.995 455.477 186.1C454.119 185.195 453.058 183.921 452.291 182.277C451.525 180.625 451.142 178.672 451.142 176.419C451.142 174.185 451.525 172.246 452.291 170.602C453.058 168.959 454.124 167.689 455.491 166.794C456.857 165.898 458.436 165.45 460.227 165.45C461.612 165.45 462.706 165.681 463.509 166.143C464.322 166.595 464.94 167.112 465.365 167.694C465.799 168.266 466.136 168.737 466.376 169.107H466.653V158.636H469.922V187H466.764V183.732H466.376C466.136 184.119 465.794 184.609 465.351 185.2C464.908 185.781 464.276 186.303 463.454 186.765C462.632 187.217 461.538 187.443 460.172 187.443ZM460.615 184.507C461.926 184.507 463.034 184.165 463.939 183.482C464.843 182.79 465.531 181.834 466.002 180.615C466.473 179.387 466.709 177.97 466.709 176.364C466.709 174.776 466.478 173.386 466.016 172.195C465.554 170.995 464.871 170.062 463.966 169.397C463.062 168.723 461.944 168.386 460.615 168.386C459.23 168.386 458.076 168.742 457.152 169.453C456.238 170.154 455.551 171.11 455.089 172.32C454.636 173.52 454.41 174.868 454.41 176.364C454.41 177.878 454.641 179.254 455.103 180.491C455.574 181.719 456.266 182.697 457.18 183.427C458.103 184.147 459.248 184.507 460.615 184.507ZM485.281 187.443C483.231 187.443 481.463 186.991 479.976 186.086C478.499 185.172 477.359 183.898 476.555 182.263C475.761 180.62 475.364 178.709 475.364 176.53C475.364 174.351 475.761 172.43 476.555 170.768C477.359 169.097 478.476 167.795 479.907 166.863C481.347 165.921 483.028 165.45 484.948 165.45C486.056 165.45 487.15 165.635 488.231 166.004C489.311 166.374 490.294 166.974 491.18 167.805C492.067 168.626 492.773 169.716 493.299 171.073C493.826 172.43 494.089 174.102 494.089 176.087V177.472H477.691V174.646H490.765C490.765 173.446 490.525 172.375 490.045 171.433C489.574 170.491 488.9 169.748 488.023 169.203C487.155 168.659 486.13 168.386 484.948 168.386C483.646 168.386 482.52 168.71 481.569 169.356C480.627 169.993 479.902 170.824 479.395 171.849C478.887 172.874 478.633 173.972 478.633 175.145V177.028C478.633 178.635 478.91 179.997 479.464 181.114C480.027 182.222 480.807 183.067 481.804 183.648C482.802 184.221 483.96 184.507 485.281 184.507C486.139 184.507 486.915 184.387 487.607 184.147C488.309 183.898 488.914 183.528 489.422 183.039C489.929 182.54 490.322 181.922 490.599 181.183L493.756 182.07C493.424 183.141 492.866 184.082 492.081 184.895C491.296 185.698 490.326 186.326 489.172 186.778C488.018 187.222 486.721 187.443 485.281 187.443ZM498.451 187V184.507L510.528 168.996V168.774H498.839V165.727H514.738V168.331L502.994 183.732V183.953H515.126V187H498.451ZM532.348 173.317V176.364H519.939V173.317H532.348ZM555.494 165.727L547.627 187H544.303L536.437 165.727H539.982L545.855 182.679H546.076L551.948 165.727H555.494ZM567.688 187.443C565.768 187.443 564.083 186.986 562.633 186.072C561.193 185.158 560.066 183.879 559.254 182.236C558.451 180.592 558.049 178.672 558.049 176.474C558.049 174.259 558.451 172.324 559.254 170.672C560.066 169.019 561.193 167.735 562.633 166.821C564.083 165.907 565.768 165.45 567.688 165.45C569.609 165.45 571.289 165.907 572.729 166.821C574.179 167.735 575.305 169.019 576.109 170.672C576.921 172.324 577.327 174.259 577.327 176.474C577.327 178.672 576.921 180.592 576.109 182.236C575.305 183.879 574.179 185.158 572.729 186.072C571.289 186.986 569.609 187.443 567.688 187.443ZM567.688 184.507C569.147 184.507 570.347 184.133 571.289 183.385C572.231 182.637 572.928 181.654 573.38 180.435C573.833 179.217 574.059 177.896 574.059 176.474C574.059 175.053 573.833 173.728 573.38 172.5C572.928 171.272 572.231 170.279 571.289 169.522C570.347 168.765 569.147 168.386 567.688 168.386C566.229 168.386 565.029 168.765 564.087 169.522C563.146 170.279 562.449 171.272 561.996 172.5C561.544 173.728 561.317 175.053 561.317 176.474C561.317 177.896 561.544 179.217 561.996 180.435C562.449 181.654 563.146 182.637 564.087 183.385C565.029 184.133 566.229 184.507 567.688 184.507ZM595.723 178.303V165.727H598.991V187H595.723V183.399H595.501C595.003 184.479 594.227 185.398 593.175 186.155C592.122 186.903 590.793 187.277 589.186 187.277C587.856 187.277 586.675 186.986 585.641 186.404C584.606 185.814 583.794 184.927 583.203 183.745C582.612 182.554 582.317 181.054 582.317 179.244V165.727H585.585V179.023C585.585 180.574 586.019 181.811 586.887 182.734C587.764 183.658 588.881 184.119 590.239 184.119C591.051 184.119 591.877 183.912 592.718 183.496C593.567 183.081 594.278 182.444 594.85 181.585C595.432 180.726 595.723 179.632 595.723 178.303ZM620.046 170.491L617.11 171.322C616.925 170.833 616.653 170.358 616.293 169.896C615.942 169.425 615.462 169.037 614.852 168.733C614.243 168.428 613.463 168.276 612.512 168.276C611.21 168.276 610.125 168.576 609.257 169.176C608.399 169.767 607.969 170.519 607.969 171.433C607.969 172.246 608.265 172.887 608.856 173.358C609.447 173.829 610.37 174.222 611.626 174.536L614.783 175.311C616.685 175.773 618.102 176.479 619.035 177.43C619.968 178.372 620.434 179.586 620.434 181.072C620.434 182.291 620.083 183.381 619.381 184.341C618.689 185.301 617.719 186.058 616.473 186.612C615.226 187.166 613.777 187.443 612.124 187.443C609.954 187.443 608.159 186.972 606.737 186.031C605.315 185.089 604.415 183.713 604.036 181.903L607.138 181.128C607.434 182.273 607.992 183.131 608.814 183.704C609.645 184.276 610.73 184.562 612.069 184.562C613.592 184.562 614.802 184.239 615.697 183.593C616.602 182.937 617.055 182.153 617.055 181.239C617.055 180.5 616.796 179.881 616.279 179.383C615.762 178.875 614.968 178.496 613.897 178.247L610.351 177.416C608.403 176.955 606.972 176.239 606.058 175.27C605.153 174.291 604.701 173.067 604.701 171.599C604.701 170.399 605.038 169.337 605.712 168.414C606.395 167.491 607.323 166.766 608.496 166.24C609.677 165.713 611.016 165.45 612.512 165.45C614.617 165.45 616.27 165.912 617.47 166.835C618.68 167.759 619.538 168.977 620.046 170.491Z" fill="white"/>
</svg>
